<svg xmlns="http://www.w3.org/2000/svg" xmlns:xlink="http://www.w3.org/1999/xlink" width="366" zoomAndPan="magnify" viewBox="0 0 274.5 291.749991" height="389" preserveAspectRatio="xMidYMid meet" version="1.0"><defs><g/><clipPath id="86a54f377c"><path d="M 34.335938 0.140625 L 87.488281 0.140625 L 87.488281 75.753906 L 34.335938 75.753906 Z M 34.335938 0.140625 " clip-rule="nonzero"/></clipPath><clipPath id="e73d2f77a9"><path d="M 42.15625 10.382812 L 79.539062 10.382812 L 79.539062 43.183594 L 42.15625 43.183594 Z M 42.15625 10.382812 " clip-rule="nonzero"/></clipPath><clipPath id="c22c21d783"><rect x="0" width="154" y="0" height="54"/></clipPath></defs><path fill="#4a3426" d="M 265.128906 230.253906 C 249.382812 179.675781 236.695312 125.136719 251.332031 74.253906 C 256.351562 56.816406 262.046875 30.992188 249.515625 15.261719 C 237.5625 0.273438 204.9375 2.464844 189.011719 8.519531 C 178.339844 12.558594 168.15625 20.203125 165.074219 31.1875 C 159.292969 51.722656 166.964844 75.386719 167.511719 96.386719 C 167.710938 104.078125 166.964844 112.617188 161.390625 117.914062 C 152.308594 126.542969 132.945312 126.828125 122.917969 120.554688 C 94.441406 102.734375 116.285156 57.25 108.9375 31.1875 C 105.84375 20.191406 95.648438 12.558594 84.980469 8.519531 C 69.050781 2.464844 36.429688 0.273438 24.476562 15.261719 C 11.941406 30.980469 17.640625 56.816406 22.652344 74.253906 C 37.292969 125.136719 24.605469 179.675781 8.859375 230.253906 C 0.0820312 258.445312 3.171875 280.042969 34.726562 287.160156 C 47.039062 290.375 59.519531 291.296875 72.167969 289.921875 C 75.300781 289.566406 78.371094 288.914062 81.378906 287.964844 C 84.386719 287.015625 87.277344 285.789062 90.046875 284.289062 C 92.820312 282.785156 95.425781 281.03125 97.859375 279.027344 C 100.292969 277.023438 102.515625 274.804688 104.523438 272.375 C 116.550781 256.582031 114.671875 234.605469 112.214844 214.910156 C 109.753906 195.132812 106.019531 180.226562 130.742188 176.5 C 132.144531 176.292969 133.542969 176.148438 134.9375 176.070312 C 145.304688 175.511719 160.65625 176.042969 163.652344 188.570312 C 166.25 199.425781 161.1875 216.910156 160.367188 228.285156 C 159.285156 243.382812 159.910156 259.824219 169.464844 272.375 C 171.472656 274.804688 173.695312 277.023438 176.128906 279.027344 C 178.566406 281.03125 181.167969 282.785156 183.941406 284.285156 C 186.714844 285.789062 189.605469 287.015625 192.613281 287.964844 C 195.621094 288.914062 198.691406 289.566406 201.824219 289.921875 C 214.472656 291.296875 226.953125 290.375 239.265625 287.160156 C 270.8125 280.042969 273.90625 258.445312 265.128906 230.253906 Z M 265.128906 230.253906 " fill-opacity="1" fill-rule="nonzero"/><g clip-path="url(#86a54f377c)"><path fill="#d7c2a8" d="M 82.902344 0.125 L 38.777344 0.125 C 36.40625 0.125 34.476562 2.054688 34.476562 4.429688 L 34.476562 70.78125 C 34.476562 72.488281 35.449219 73.984375 37.015625 74.691406 C 38.570312 75.402344 40.347656 75.121094 41.664062 73.957031 L 59.828125 56.683594 C 60.410156 56.167969 61.269531 56.167969 61.8125 56.640625 L 80.015625 73.957031 C 80.015625 73.957031 80.042969 73.984375 80.058594 74 C 80.863281 74.707031 81.863281 75.082031 82.890625 75.082031 C 83.484375 75.082031 84.097656 74.957031 84.664062 74.691406 C 86.234375 73.984375 87.203125 72.488281 87.203125 70.78125 L 87.203125 4.429688 C 87.203125 2.054688 85.273438 0.125 82.902344 0.125 Z M 82.902344 0.125 " fill-opacity="1" fill-rule="nonzero"/></g><g clip-path="url(#e73d2f77a9)"><path fill="#4a3426" d="M 72.75 11.675781 C 72.574219 11.824219 72.390625 11.984375 72.207031 12.15625 C 69.46875 14.273438 65.71875 18.582031 63.230469 22.148438 C 62 23.914062 61.042969 25.585938 60.289062 27.011719 C 59.839844 27.832031 58.722656 29.855469 57.851562 31.425781 C 56.777344 29.816406 55.074219 27.78125 54.933594 27.804688 C 54.679688 27.480469 54.410156 27.160156 54.128906 26.859375 C 52.714844 25.34375 51.242188 24.222656 49.609375 24.027344 C 49.605469 24.027344 49.601562 24.023438 49.601562 24.023438 C 47.953125 23.511719 40.609375 26.34375 42.449219 27.113281 C 44.238281 27.855469 46.011719 28.996094 46.109375 29.058594 C 47.570312 30.046875 48.761719 31.089844 50.382812 33.820312 C 52.128906 36.765625 52.828125 39.023438 53.320312 40.226562 C 53.320312 40.226562 54.730469 44.773438 57.589844 42.59375 C 59.128906 41.421875 60.050781 40.078125 60.570312 39.082031 L 60.578125 39.070312 C 60.660156 38.917969 60.730469 38.773438 60.792969 38.636719 L 62.230469 35.726562 C 62.320312 35.542969 62.410156 35.355469 62.5 35.148438 C 64.625 30.179688 68.078125 24.078125 70.726562 20.542969 C 72.015625 18.824219 73.996094 16.84375 75.71875 15.160156 C 75.742188 15.140625 78.597656 12.730469 79.453125 11.273438 C 80.316406 9.804688 74.378906 10.300781 72.75 11.675781 " fill-opacity="1" fill-rule="nonzero"/></g><g transform="matrix(1, 0, 0, 1, 60, 124)"><g clip-path="url(#c22c21d783)"><g fill="#d7c2a8" fill-opacity="1"><g transform="translate(0.784756, 41.199524)"><g><path d="M 2.78125 0 L 2.78125 -30.984375 L 9.03125 -30.984375 L 9.03125 -23.984375 C 9.03125 -23.398438 9.007812 -22.773438 8.96875 -22.109375 C 8.925781 -21.453125 8.859375 -20.773438 8.765625 -20.078125 C 8.679688 -19.378906 8.585938 -18.679688 8.484375 -17.984375 C 8.390625 -17.296875 8.269531 -16.617188 8.125 -15.953125 L 9.03125 -15.953125 C 9.4375 -17.515625 9.953125 -18.851562 10.578125 -19.96875 C 11.203125 -21.082031 12.015625 -21.9375 13.015625 -22.53125 C 14.015625 -23.125 15.265625 -23.421875 16.765625 -23.421875 C 18.304688 -23.421875 19.566406 -23.140625 20.546875 -22.578125 C 21.535156 -22.015625 22.304688 -21.28125 22.859375 -20.375 C 23.410156 -19.476562 23.816406 -18.5 24.078125 -17.4375 C 24.335938 -16.382812 24.503906 -15.347656 24.578125 -14.328125 C 24.648438 -13.316406 24.6875 -12.4375 24.6875 -11.6875 L 24.6875 0 L 18.421875 0 L 18.421875 -11 C 18.421875 -12.0625 18.347656 -13.035156 18.203125 -13.921875 C 18.054688 -14.804688 17.820312 -15.566406 17.5 -16.203125 C 17.1875 -16.835938 16.757812 -17.328125 16.21875 -17.671875 C 15.6875 -18.023438 15.03125 -18.203125 14.25 -18.203125 C 13.09375 -18.203125 12.132812 -17.851562 11.375 -17.15625 C 10.625 -16.46875 10.050781 -15.519531 9.65625 -14.3125 C 9.269531 -13.113281 9.0625 -11.75 9.03125 -10.21875 L 9.03125 0 Z M 2.78125 0 "/></g></g></g><g fill="#d7c2a8" fill-opacity="1"><g transform="translate(27.942573, 41.199524)"><g><path d="M 10.421875 0.609375 C 9.296875 0.609375 8.296875 0.445312 7.421875 0.125 C 6.554688 -0.1875 5.8125 -0.65625 5.1875 -1.28125 C 4.570312 -1.90625 4.0625 -2.65625 3.65625 -3.53125 C 3.25 -4.414062 2.941406 -5.429688 2.734375 -6.578125 C 2.535156 -7.722656 2.4375 -8.992188 2.4375 -10.390625 L 2.4375 -22.8125 L 8.734375 -22.8125 L 8.734375 -11.78125 C 8.734375 -11.132812 8.753906 -10.40625 8.796875 -9.59375 C 8.835938 -8.789062 8.984375 -8.003906 9.234375 -7.234375 C 9.484375 -6.460938 9.878906 -5.832031 10.421875 -5.34375 C 10.972656 -4.851562 11.742188 -4.609375 12.734375 -4.609375 C 13.546875 -4.609375 14.25 -4.800781 14.84375 -5.1875 C 15.4375 -5.582031 15.945312 -6.148438 16.375 -6.890625 C 16.8125 -7.628906 17.140625 -8.5 17.359375 -9.5 C 17.578125 -10.5 17.703125 -11.59375 17.734375 -12.78125 L 17.734375 -22.8125 L 23.984375 -22.8125 L 23.984375 0 L 18.90625 0 L 18.90625 -7.296875 L 18.125 -7.296875 C 17.75 -5.441406 17.226562 -3.9375 16.5625 -2.78125 C 15.894531 -1.625 15.0625 -0.769531 14.0625 -0.21875 C 13.0625 0.332031 11.847656 0.609375 10.421875 0.609375 Z M 10.421875 0.609375 "/></g></g></g><g fill="#d7c2a8" fill-opacity="1"><g transform="translate(54.709316, 41.199524)"><g><path d="M 11.953125 0.609375 C 10.410156 0.609375 9.015625 0.460938 7.765625 0.171875 C 6.523438 -0.117188 5.457031 -0.546875 4.5625 -1.109375 C 3.664062 -1.671875 2.941406 -2.347656 2.390625 -3.140625 C 1.835938 -3.941406 1.488281 -4.835938 1.34375 -5.828125 L 6.171875 -7.640625 C 6.285156 -7.003906 6.59375 -6.40625 7.09375 -5.84375 C 7.601562 -5.28125 8.289062 -4.832031 9.15625 -4.5 C 10.03125 -4.164062 11.09375 -4 12.34375 -4 C 13.644531 -4 14.65625 -4.191406 15.375 -4.578125 C 16.101562 -4.972656 16.46875 -5.53125 16.46875 -6.25 C 16.46875 -6.800781 16.265625 -7.234375 15.859375 -7.546875 C 15.453125 -7.867188 14.863281 -8.144531 14.09375 -8.375 C 13.332031 -8.613281 12.398438 -8.832031 11.296875 -9.03125 C 10.191406 -9.289062 9.082031 -9.570312 7.96875 -9.875 C 6.851562 -10.1875 5.820312 -10.601562 4.875 -11.125 C 3.9375 -11.644531 3.175781 -12.320312 2.59375 -13.15625 C 2.019531 -14 1.734375 -15.070312 1.734375 -16.375 C 1.734375 -17.800781 2.109375 -19.035156 2.859375 -20.078125 C 3.617188 -21.117188 4.726562 -21.9375 6.1875 -22.53125 C 7.65625 -23.125 9.414062 -23.421875 11.46875 -23.421875 C 13.351562 -23.421875 15.003906 -23.164062 16.421875 -22.65625 C 17.835938 -22.15625 18.992188 -21.414062 19.890625 -20.4375 C 20.796875 -19.46875 21.394531 -18.304688 21.6875 -16.953125 L 16.59375 -15.34375 C 16.476562 -16.0625 16.203125 -16.6875 15.765625 -17.21875 C 15.335938 -17.757812 14.753906 -18.160156 14.015625 -18.421875 C 13.273438 -18.679688 12.410156 -18.8125 11.421875 -18.8125 C 10.210938 -18.8125 9.265625 -18.609375 8.578125 -18.203125 C 7.898438 -17.796875 7.5625 -17.257812 7.5625 -16.59375 C 7.5625 -16.050781 7.785156 -15.601562 8.234375 -15.25 C 8.679688 -14.90625 9.300781 -14.625 10.09375 -14.40625 C 10.894531 -14.1875 11.847656 -13.960938 12.953125 -13.734375 C 14.109375 -13.503906 15.226562 -13.234375 16.3125 -12.921875 C 17.40625 -12.617188 18.398438 -12.222656 19.296875 -11.734375 C 20.191406 -11.242188 20.90625 -10.59375 21.4375 -9.78125 C 21.976562 -8.96875 22.25 -7.910156 22.25 -6.609375 C 22.25 -5.097656 21.84375 -3.804688 21.03125 -2.734375 C 20.21875 -1.660156 19.039062 -0.832031 17.5 -0.25 C 15.96875 0.320312 14.117188 0.609375 11.953125 0.609375 Z M 11.953125 0.609375 "/></g></g></g><g fill="#d7c2a8" fill-opacity="1"><g transform="translate(78.26058, 41.199524)"><g><path d="M 2.78125 0 L 2.78125 -31.03125 L 8.90625 -31.03125 L 8.90625 -13.8125 C 9.832031 -14.425781 10.707031 -15.085938 11.53125 -15.796875 C 12.363281 -16.503906 13.117188 -17.25 13.796875 -18.03125 C 14.472656 -18.8125 15.070312 -19.609375 15.59375 -20.421875 C 16.113281 -21.234375 16.550781 -22.03125 16.90625 -22.8125 L 24.078125 -22.8125 C 23.671875 -21.707031 23.109375 -20.597656 22.390625 -19.484375 C 21.679688 -18.367188 20.84375 -17.335938 19.875 -16.390625 C 18.90625 -15.453125 17.789062 -14.648438 16.53125 -13.984375 C 15.269531 -13.328125 13.875 -12.863281 12.34375 -12.59375 L 12.34375 -11.90625 C 14.28125 -12.226562 15.878906 -12.191406 17.140625 -11.796875 C 18.398438 -11.398438 19.4375 -10.773438 20.25 -9.921875 C 21.0625 -9.066406 21.710938 -8.082031 22.203125 -6.96875 C 22.691406 -5.851562 23.128906 -4.71875 23.515625 -3.5625 L 24.546875 0 L 17.734375 0 L 17.15625 -2.265625 C 16.757812 -3.648438 16.328125 -4.863281 15.859375 -5.90625 C 15.398438 -6.945312 14.769531 -7.765625 13.96875 -8.359375 C 13.175781 -8.953125 12.082031 -9.25 10.6875 -9.25 L 8.90625 -9.25 L 8.90625 0 Z M 2.78125 0 "/></g></g></g><g fill="#d7c2a8" fill-opacity="1"><g transform="translate(103.767218, 41.199524)"><g><path d="M 0.6875 -20 C 1.207031 -21.332031 1.578125 -22.566406 1.796875 -23.703125 C 2.015625 -24.847656 2.144531 -26.007812 2.1875 -27.1875 C 2.226562 -28.363281 2.25 -29.628906 2.25 -30.984375 L 8 -30.984375 C 8 -29.046875 7.875 -27.378906 7.625 -25.984375 C 7.375 -24.597656 7.0625 -23.421875 6.6875 -22.453125 C 6.3125 -21.484375 5.921875 -20.664062 5.515625 -20 Z M 0.6875 -20 "/></g></g></g><g fill="#d7c2a8" fill-opacity="1"><g transform="translate(110.719342, 41.199524)"><g><path d="M 13.390625 0.609375 C 11.503906 0.609375 9.828125 0.347656 8.359375 -0.171875 C 6.898438 -0.691406 5.660156 -1.453125 4.640625 -2.453125 C 3.628906 -3.453125 2.863281 -4.664062 2.34375 -6.09375 C 1.820312 -7.53125 1.5625 -9.164062 1.5625 -11 C 1.5625 -12.789062 1.8125 -14.445312 2.3125 -15.96875 C 2.820312 -17.488281 3.5625 -18.804688 4.53125 -19.921875 C 5.507812 -21.035156 6.707031 -21.894531 8.125 -22.5 C 9.539062 -23.113281 11.148438 -23.421875 12.953125 -23.421875 C 14.710938 -23.421875 16.265625 -23.128906 17.609375 -22.546875 C 18.960938 -21.972656 20.085938 -21.117188 20.984375 -19.984375 C 21.878906 -18.859375 22.535156 -17.484375 22.953125 -15.859375 C 23.378906 -14.234375 23.519531 -12.363281 23.375 -10.25 L 5.609375 -10.125 L 5.609375 -13.5625 L 19.6875 -13.6875 L 17.59375 -11.90625 C 17.800781 -13.4375 17.707031 -14.691406 17.3125 -15.671875 C 16.925781 -16.660156 16.347656 -17.382812 15.578125 -17.84375 C 14.804688 -18.3125 13.945312 -18.546875 13 -18.546875 C 11.894531 -18.546875 10.925781 -18.253906 10.09375 -17.671875 C 9.269531 -17.097656 8.632812 -16.253906 8.1875 -15.140625 C 7.738281 -14.023438 7.515625 -12.6875 7.515625 -11.125 C 7.515625 -8.664062 8.050781 -6.863281 9.125 -5.71875 C 10.195312 -4.570312 11.617188 -4 13.390625 -4 C 14.191406 -4 14.875 -4.109375 15.4375 -4.328125 C 16.007812 -4.546875 16.472656 -4.828125 16.828125 -5.171875 C 17.191406 -5.515625 17.472656 -5.90625 17.671875 -6.34375 C 17.878906 -6.78125 18.039062 -7.226562 18.15625 -7.6875 L 23.640625 -6.5625 C 23.429688 -5.488281 23.070312 -4.515625 22.5625 -3.640625 C 22.0625 -2.773438 21.398438 -2.023438 20.578125 -1.390625 C 19.753906 -0.753906 18.75 -0.265625 17.5625 0.078125 C 16.375 0.429688 14.984375 0.609375 13.390625 0.609375 Z M 13.390625 0.609375 "/></g></g></g><g fill="#d7c2a8" fill-opacity="1"><g transform="translate(135.791436, 41.199524)"><g><path d="M 11.296875 0.515625 C 10.046875 0.515625 8.957031 0.351562 8.03125 0.03125 C 7.101562 -0.28125 6.328125 -0.773438 5.703125 -1.453125 C 5.085938 -2.140625 4.617188 -3.015625 4.296875 -4.078125 C 3.984375 -5.148438 3.828125 -6.425781 3.828125 -7.90625 L 3.828125 -17.90625 L 0.5625 -17.90625 L 0.6875 -22.71875 L 2.78125 -22.71875 C 3.738281 -22.75 4.445312 -22.914062 4.90625 -23.21875 C 5.375 -23.53125 5.648438 -24.078125 5.734375 -24.859375 L 6.25 -27.890625 L 9.828125 -27.890625 L 9.828125 -22.8125 L 15.5625 -22.8125 L 15.5625 -17.734375 L 9.828125 -17.734375 L 9.828125 -8.21875 C 9.828125 -7.03125 10.113281 -6.234375 10.6875 -5.828125 C 11.269531 -5.421875 11.976562 -5.21875 12.8125 -5.21875 C 13.332031 -5.21875 13.851562 -5.28125 14.375 -5.40625 C 14.90625 -5.539062 15.359375 -5.722656 15.734375 -5.953125 L 15.734375 -0.125 C 14.835938 0.132812 14.007812 0.304688 13.25 0.390625 C 12.5 0.472656 11.847656 0.515625 11.296875 0.515625 Z M 11.296875 0.515625 "/></g></g></g></g></g></svg>